:SAMPLES-PER-SECOND 30
:FULLY-SPECIFIED
:DEGREES
45
root  -8.26081 52.3064 4.44497 163.725 72.0242 176.107
RightUpLeg  -53.6324 -21.4017 1.5478
RightLeg  17.7163 3.91524 -1.26592
RightFoot  22.3304 -4.24839 13.3111
RightToes  1.16414e-010 -1.59028e-015 9.93923e-017
Spine  36.126 -5.81524 -6.32156
Spine1  15.8042 -7.84677 8.0406
HEad  -14.5508 -7.0926 17.639
LeftShoulder1  9.93923e-017 0 1.22299e-017
LeftArm  65.7643 3.84324 -50.5023
LeftForeArm  -39.5019 -21.1185 2.58677
LeftHand  0.731784 4.54481 -4.01989
RightShoulder  1.98785e-016 -4.96962e-017 1.55301e-017
RightArm  73.9485 -41.695 23.7713
RightForeArm  -58.6649 21.9716 -20.6601
RightHand  0.909981 -11.3573 3.12646
LeftUpLeg  -16.1636 -14.9242 13.4706
LeftLeg  117.146 -5.4582 -15.7768
LeftFoot  39.6058 3.21303 -6.18228
LeftToes  4.22918e-010 -9.72932e-012 3.81536e-011
46
root  -5.82483 52.0918 4.84425 159.309 71.9774 173.455
RightUpLeg  -43.5226 -15.7563 -5.55087
RightLeg  11.9215 -2.31067 -1.31085
RightFoot  25.0345 -4.88113 14.1037
RightToes  1.16414e-010 -1.59028e-015 9.93923e-017
Spine  38.4807 -4.47261 -4.67066
Spine1  18.0698 -5.98762 5.21069
HEad  -15.1418 -8.87217 18.989
LeftShoulder1  9.93923e-017 0 1.22299e-017
LeftArm  62.5968 6.96731 -55.2768
LeftForeArm  -39.6373 -19.1649 -1.02401
LeftHand  0.774036 5.34074 -1.61237
RightShoulder  1.98785e-016 -4.96962e-017 1.55301e-017
RightArm  72.9603 -49.5013 26.3836
RightForeArm  -54.3045 23.4367 -21.8117
RightHand  0.909694 -11.1736 2.855
LeftUpLeg  -28.6084 -15.939 14.9013
LeftLeg  131.379 3.52354 -19.976
LeftFoot  38.4995 2.72851 -5.35019
LeftToes  4.22918e-010 -9.72932e-012 3.81536e-011
47
root  -3.02523 51.4745 5.13698 154.105 73.8197 169.474
RightUpLeg  -36.2729 -9.64088 -8.60124
RightLeg  11.1923 -3.87807 -1.61296
RightFoot  26.561 -4.34384 12.0276
RightToes  1.16414e-010 -1.59028e-015 9.93923e-017
Spine  39.0992 -2.7911 -3.21578
Spine1  19.8847 -3.55996 1.85174
HEad  -15.103 -9.89024 19.7526
LeftShoulder1  9.93923e-017 0 1.22299e-017
LeftArm  48.7646 13.6998 -57.6259
LeftForeArm  -34.2519 -17.2282 -2.60302
LeftHand  0.754665 5.43383 0.557722
RightShoulder  1.98785e-016 -4.96962e-017 1.55301e-017
RightArm  73.5209 -54.5787 30.0912
RightForeArm  -51.5633 24.7325 -22.7701
RightHand  0.812896 -10.5851 4.41957
LeftUpLeg  -41.3466 -13.5342 15.2096
LeftLeg  138.908 9.02076 -20.0622
LeftFoot  37.56 2.67331 -5.35824
LeftToes  4.22918e-010 -9.72932e-012 3.81536e-011
48
root  0.0283004 50.3139 5.38455 144.676 75.1708 161.015
RightUpLeg  -30.2736 -7.08113 -9.27018
RightLeg  12.1711 0.896365 -1.59361
RightFoot  27.069 -3.8251 10.4454
RightToes  1.16414e-010 -1.59028e-015 9.93923e-017
Spine  39.2549 -0.600375 -3.29205
Spine1  20.498 -1.38483 -0.351126
HEad  -14.7209 -10.886 20.7838
LeftShoulder1  9.93923e-017 0 1.22299e-017
LeftArm  38.6725 23.7684 -58.8039
LeftForeArm  -32.7523 -18.082 -0.423835
LeftHand  0.761489 5.37094 -0.618715
RightShoulder  1.98785e-016 -4.96962e-017 1.55301e-017
RightArm  75.3246 -57.8917 33.1038
RightForeArm  -46.7778 25.6198 -23.6149
RightHand  0.714788 -9.86673 6.35266
LeftUpLeg  -54.1386 -10.4038 10.5335
LeftLeg  140.995 9.78414 -19.2716
LeftFoot  36.8123 2.90166 -5.9457
LeftToes  4.22918e-010 -9.72932e-012 3.81536e-011
49
root  3.21184 48.7034 5.59054 132.905 75.4483 151.225
RightUpLeg  -22.5038 -5.42118 -10.6671
RightLeg  12.5973 4.29415 -1.87505
RightFoot  27.581 -3.92696 10.5959
RightToes  1.16414e-010 -1.59028e-015 9.93923e-017
Spine  39.9443 1.72888 -3.85606
Spine1  20.4709 0.456337 -1.13838
HEad  -14.4986 -12.4207 21.3809
LeftShoulder1  9.93923e-017 0 1.22299e-017
LeftArm  39.3959 35.1049 -59.812
LeftForeArm  -38.1052 -21.0141 4.48329
LeftHand  0.828818 5.6461 -2.75295
RightShoulder  1.98785e-016 -4.96962e-017 1.55301e-017
RightArm  74.7815 -60.1758 35.9165
RightForeArm  -41.8029 25.6481 -23.9205
RightHand  0.694636 -9.68292 6.79692
LeftUpLeg  -64.8514 -9.36873 2.30354
LeftLeg  138.041 6.75931 -18.7816
LeftFoot  35.2329 2.62848 -5.57654
LeftToes  4.22918e-010 -9.72932e-012 3.81536e-011
50
root  6.47088 46.7735 5.77154 123.696 75.182 144.928
RightUpLeg  -12.4059 -4.47887 -11.8342
RightLeg  11.1166 3.3452 -3.05311
RightFoot  31.9078 -4.97159 11.9265
RightToes  1.16414e-010 -1.59028e-015 9.93923e-017
Spine  40.3714 3.70827 -4.14377
Spine1  20.4693 2.05453 -1.09309
HEad  -13.2511 -14.5821 20.6701
LeftShoulder1  9.93923e-017 0 1.22299e-017
LeftArm  41.2475 45.997 -60.0561
LeftForeArm  -39.2438 -22.322 7.49022
LeftHand  0.863722 5.83266 -3.82415
RightShoulder  1.98785e-016 -4.96962e-017 1.55301e-017
RightArm  71.2534 -60.9635 40.0865
RightForeArm  -41.7255 24.4789 -23.1581
RightHand  0.731529 -10.0762 6.0758
LeftUpLeg  -72.2188 -10.381 -4.59821
LeftLeg  131.625 1.18211 -17.2994
LeftFoot  31.7382 1.66405 -3.79645
LeftToes  4.22918e-010 -9.72932e-012 3.81536e-011
51
root  9.70173 44.4595 5.93831 118.425 74.9908 141.822
RightUpLeg  -2.31149 -4.75184 -12.5338
RightLeg  8.96076 0.77636 -3.37823
RightFoot  37.257 -6.2662 13.3224
RightToes  1.16414e-010 -1.59028e-015 9.93923e-017
Spine  38.994 5.14429 -4.19472
Spine1  20.2001 3.56919 -1.11841
HEad  -9.88133 -17.1989 18.8543
LeftShoulder1  9.93923e-017 0 1.22299e-017
LeftArm  42.5218 57.2499 -57.3284
LeftForeArm  -36.8634 -22.703 9.27062
LeftHand  0.877996 5.83918 -5.12581
RightShoulder  1.98785e-016 -4.96962e-017 1.55301e-017
RightArm  67.6887 -60.608 44.6777
RightForeArm  -44.8769 22.5093 -21.8004
RightHand  0.749203 -10.1477 5.60958
LeftUpLeg  -77.0114 -11.6332 -8.50529
LeftLeg  123.598 -4.92823 -13.7422
LeftFoot  23.7271 0.387657 -0.885085
LeftToes  4.22918e-010 -9.72932e-012 3.81536e-011
52
root  12.8603 41.8408 5.98142 114.188 76.8068 138.017
RightUpLeg  3.86103 -5.05705 -11.541
RightLeg  11.4479 2.23606 -2.20265
RightFoot  31.2563 -5.58164 13.8673
RightToes  1.16414e-010 -1.59028e-015 9.93923e-017
Spine  35.2098 5.95699 -2.1945
Spine1  19.6867 5.32075 -1.32677
HEad  -6.62507 -19.2093 16.2948
LeftShoulder1  9.93923e-017 0 1.22299e-017
LeftArm  50.9375 69.3154 -47.864
LeftForeArm  -40.1622 -24.0157 13.2752
LeftHand  0.902316 5.99163 -6.01325
RightShoulder  1.98785e-016 -4.96962e-017 1.55301e-017
RightArm  63.1108 -59.2484 48.4055
RightForeArm  -44.6279 20.743 -20.2244
RightHand  0.749083 -9.93198 5.22856
LeftUpLeg  -78.7192 -11.2676 -9.40389
LeftLeg  114.882 -9.51656 -9.1552
LeftFoot  11.6436 -0.607538 3.1127
LeftToes  4.22918e-010 -9.72932e-012 3.81536e-011
53
root  15.9591 39.3304 5.89038 105.059 81.5028 128.443
RightUpLeg  5.32662 -2.98183 -7.1611
RightLeg  20.8299 5.84438 -1.32282
RightFoot  10.2413 -2.41088 10.6268
RightToes  1.16414e-010 -1.59028e-015 9.93923e-017
Spine  30.1312 6.14317 2.6725
Spine1  20.5137 6.91592 -0.89635
HEad  -6.92721 -19.1258 12.8732
LeftShoulder1  9.93923e-017 0 1.22299e-017
LeftArm  64.4111 78.8452 -31.4654
LeftForeArm  -44.4496 -24.8301 14.4153
LeftHand  0.927384 6.36571 -4.7344
RightShoulder  1.98785e-016 -4.96962e-017 1.55301e-017
RightArm  53.552 -54.8569 51.7367
RightForeArm  -40.8545 19.882 -18.2961
RightHand  0.881555 -10.8256 3.06817
LeftUpLeg  -75.6441 -8.20602 -7.86368
LeftLeg  105.081 -11.8345 -5.93009
LeftFoot  3.19934 -0.867181 5.75171
LeftToes  4.22918e-010 -9.72932e-012 3.81536e-011
